<?xml version="1.0" encoding="UTF-8"?>
<svg xmlns="http://www.w3.org/2000/svg" width="900" height="650" viewBox="0 0 900 650" role="img" aria-labelledby="title description">
<title id="title">Per-patient full-resolution objective improvement</title>
<desc id="description">Horizontal bars show the percentage objective improvement for 37 lung patients. Positive values favor the genetic algorithm. 30 values are positive and 7 are negative.</desc>
<style>
text{font-family:Arial,Helvetica,sans-serif;fill:#222}
.tick{font-size:12px}.patient{font-size:13px}.value{font-size:12px;font-weight:600}
.axis-label{font-size:14px}.legend{font-size:12px}.outlier{font-weight:700}
.grid{stroke:#d9d9d9;stroke-width:1}.zero{stroke:#222;stroke-width:1.4}
.mean{stroke:#555;stroke-width:1.4;stroke-dasharray:6 4}
.win{fill:#0072B2}.loss{fill:#D55E00}
</style>
<rect x="92" y="78" width="736" height="510" fill="#fff" stroke="#777" stroke-width="1"/>
<line class="grid" x1="92.00" y1="78" x2="92.00" y2="588"/>
<text class="tick" x="92.00" y="608" text-anchor="middle">-5</text>
<line class="zero" x1="141.07" y1="78" x2="141.07" y2="588"/>
<text class="tick" x="141.07" y="608" text-anchor="middle">0</text>
<line class="grid" x1="239.20" y1="78" x2="239.20" y2="588"/>
<text class="tick" x="239.20" y="608" text-anchor="middle">10</text>
<line class="grid" x1="337.33" y1="78" x2="337.33" y2="588"/>
<text class="tick" x="337.33" y="608" text-anchor="middle">20</text>
<line class="grid" x1="435.47" y1="78" x2="435.47" y2="588"/>
<text class="tick" x="435.47" y="608" text-anchor="middle">30</text>
<line class="grid" x1="533.60" y1="78" x2="533.60" y2="588"/>
<text class="tick" x="533.60" y="608" text-anchor="middle">40</text>
<line class="grid" x1="631.73" y1="78" x2="631.73" y2="588"/>
<text class="tick" x="631.73" y="608" text-anchor="middle">50</text>
<line class="grid" x1="729.87" y1="78" x2="729.87" y2="588"/>
<text class="tick" x="729.87" y="608" text-anchor="middle">60</text>
<line class="grid" x1="828.00" y1="78" x2="828.00" y2="588"/>
<text class="tick" x="828.00" y="608" text-anchor="middle">70</text>
<line class="mean" x1="260.22" y1="78" x2="260.22" y2="588"/>
<text class="patient" x="82" y="88.89" text-anchor="end">P2</text>
<rect class="win" x="141.07" y="80.34" width="26.47" height="9.10"/>
<text class="value" x="173.54" y="88.89" text-anchor="start">+2.70%</text>
<text class="patient" x="82" y="102.68" text-anchor="end">P3</text>
<rect class="win" x="141.07" y="94.13" width="13.29" height="9.10"/>
<text class="value" x="160.36" y="102.68" text-anchor="start">+1.35%</text>
<text class="patient" x="82" y="116.46" text-anchor="end">P4</text>
<rect class="win" x="141.07" y="107.91" width="24.51" height="9.10"/>
<text class="value" x="171.58" y="116.46" text-anchor="start">+2.50%</text>
<text class="patient" x="82" y="130.24" text-anchor="end">P5</text>
<rect class="win" x="141.07" y="121.69" width="63.89" height="9.10"/>
<text class="value" x="210.96" y="130.24" text-anchor="start">+6.51%</text>
<text class="patient" x="82" y="144.03" text-anchor="end">P6</text>
<rect class="loss" x="139.58" y="135.48" width="1.50" height="9.10"/>
<text class="value" x="147.07" y="144.03" text-anchor="start">-0.15%</text>
<text class="patient" x="82" y="157.81" text-anchor="end">P7</text>
<rect class="loss" x="128.08" y="149.26" width="12.98" height="9.10"/>
<text class="value" x="147.07" y="157.81" text-anchor="start">-1.32%</text>
<text class="patient" x="82" y="171.59" text-anchor="end">P8</text>
<rect class="win" x="141.07" y="163.05" width="102.08" height="9.10"/>
<text class="value" x="249.15" y="171.59" text-anchor="start">+10.40%</text>
<text class="patient" x="82" y="185.38" text-anchor="end">P9</text>
<rect class="loss" x="127.62" y="176.83" width="13.45" height="9.10"/>
<text class="value" x="147.07" y="185.38" text-anchor="start">-1.37%</text>
<text class="patient" x="82" y="199.16" text-anchor="end">P10</text>
<rect class="loss" x="126.31" y="190.61" width="14.76" height="9.10"/>
<text class="value" x="147.07" y="199.16" text-anchor="start">-1.50%</text>
<text class="patient" x="82" y="212.95" text-anchor="end">P11</text>
<rect class="win" x="141.07" y="204.40" width="109.72" height="9.10"/>
<text class="value" x="256.79" y="212.95" text-anchor="start">+11.18%</text>
<text class="patient outlier" x="82" y="226.73" text-anchor="end">P14</text>
<rect class="win" x="141.07" y="218.18" width="645.97" height="9.10"/>
<text class="value" x="793.03" y="226.73" text-anchor="start">+65.83%</text>
<text class="patient" x="82" y="240.51" text-anchor="end">P15</text>
<rect class="loss" x="137.43" y="231.96" width="3.63" height="9.10"/>
<text class="value" x="147.07" y="240.51" text-anchor="start">-0.37%</text>
<text class="patient" x="82" y="254.30" text-anchor="end">P16</text>
<rect class="win" x="141.07" y="245.75" width="106.27" height="9.10"/>
<text class="value" x="253.34" y="254.30" text-anchor="start">+10.83%</text>
<text class="patient outlier" x="82" y="268.08" text-anchor="end">P17</text>
<rect class="win" x="141.07" y="259.53" width="326.69" height="9.10"/>
<text class="value" x="473.76" y="268.08" text-anchor="start">+33.29%</text>
<text class="patient" x="82" y="281.86" text-anchor="end">P18</text>
<rect class="win" x="141.07" y="273.32" width="116.25" height="9.10"/>
<text class="value" x="263.32" y="281.86" text-anchor="start">+11.85%</text>
<text class="patient" x="82" y="295.65" text-anchor="end">P19</text>
<rect class="win" x="141.07" y="287.10" width="110.38" height="9.10"/>
<text class="value" x="257.44" y="295.65" text-anchor="start">+11.25%</text>
<text class="patient" x="82" y="309.43" text-anchor="end">P20</text>
<rect class="win" x="141.07" y="300.88" width="92.03" height="9.10"/>
<text class="value" x="239.10" y="309.43" text-anchor="start">+9.38%</text>
<text class="patient" x="82" y="323.22" text-anchor="end">P21</text>
<rect class="loss" x="98.94" y="314.67" width="42.12" height="9.10"/>
<text class="value" x="147.07" y="323.22" text-anchor="start">-4.29%</text>
<text class="patient" x="82" y="337.00" text-anchor="end">P22</text>
<rect class="win" x="141.07" y="328.45" width="85.29" height="9.10"/>
<text class="value" x="232.36" y="337.00" text-anchor="start">+8.69%</text>
<text class="patient" x="82" y="350.78" text-anchor="end">P23</text>
<rect class="win" x="141.07" y="342.24" width="157.71" height="9.10"/>
<text class="value" x="304.78" y="350.78" text-anchor="start">+16.07%</text>
<text class="patient" x="82" y="364.57" text-anchor="end">P24</text>
<rect class="win" x="141.07" y="356.02" width="281.60" height="9.10"/>
<text class="value" x="428.66" y="364.57" text-anchor="start">+28.70%</text>
<text class="patient" x="82" y="378.35" text-anchor="end">P25</text>
<rect class="win" x="141.07" y="369.80" width="171.78" height="9.10"/>
<text class="value" x="318.85" y="378.35" text-anchor="start">+17.51%</text>
<text class="patient" x="82" y="392.14" text-anchor="end">P26</text>
<rect class="win" x="141.07" y="383.59" width="143.12" height="9.10"/>
<text class="value" x="290.18" y="392.14" text-anchor="start">+14.58%</text>
<text class="patient" x="82" y="405.92" text-anchor="end">P27</text>
<rect class="win" x="141.07" y="397.37" width="49.14" height="9.10"/>
<text class="value" x="196.21" y="405.92" text-anchor="start">+5.01%</text>
<text class="patient" x="82" y="419.70" text-anchor="end">P28</text>
<rect class="win" x="141.07" y="411.15" width="190.09" height="9.10"/>
<text class="value" x="337.15" y="419.70" text-anchor="start">+19.37%</text>
<text class="patient" x="82" y="433.49" text-anchor="end">P29</text>
<rect class="win" x="141.07" y="424.94" width="274.49" height="9.10"/>
<text class="value" x="421.56" y="433.49" text-anchor="start">+27.97%</text>
<text class="patient" x="82" y="447.27" text-anchor="end">P30</text>
<rect class="win" x="141.07" y="438.72" width="46.21" height="9.10"/>
<text class="value" x="193.28" y="447.27" text-anchor="start">+4.71%</text>
<text class="patient" x="82" y="461.05" text-anchor="end">P31</text>
<rect class="win" x="141.07" y="452.51" width="80.31" height="9.10"/>
<text class="value" x="227.37" y="461.05" text-anchor="start">+8.18%</text>
<text class="patient" x="82" y="474.84" text-anchor="end">P32</text>
<rect class="loss" x="127.30" y="466.29" width="13.77" height="9.10"/>
<text class="value" x="147.07" y="474.84" text-anchor="start">-1.40%</text>
<text class="patient" x="82" y="488.62" text-anchor="end">P33</text>
<rect class="win" x="141.07" y="480.07" width="154.55" height="9.10"/>
<text class="value" x="301.62" y="488.62" text-anchor="start">+15.75%</text>
<text class="patient" x="82" y="502.41" text-anchor="end">P34</text>
<rect class="win" x="141.07" y="493.86" width="152.26" height="9.10"/>
<text class="value" x="299.33" y="502.41" text-anchor="start">+15.52%</text>
<text class="patient" x="82" y="516.19" text-anchor="end">P36</text>
<rect class="win" x="141.07" y="507.64" width="87.90" height="9.10"/>
<text class="value" x="234.97" y="516.19" text-anchor="start">+8.96%</text>
<text class="patient" x="82" y="529.97" text-anchor="end">P37</text>
<rect class="win" x="141.07" y="521.42" width="13.53" height="9.10"/>
<text class="value" x="160.59" y="529.97" text-anchor="start">+1.38%</text>
<text class="patient" x="82" y="543.76" text-anchor="end">P38</text>
<rect class="win" x="141.07" y="535.21" width="513.26" height="9.10"/>
<text class="value" x="660.33" y="543.76" text-anchor="start">+52.30%</text>
<text class="patient" x="82" y="557.54" text-anchor="end">P39</text>
<rect class="win" x="141.07" y="548.99" width="228.50" height="9.10"/>
<text class="value" x="375.56" y="557.54" text-anchor="start">+23.28%</text>
<text class="patient" x="82" y="571.32" text-anchor="end">P40</text>
<rect class="win" x="141.07" y="562.78" width="77.33" height="9.10"/>
<text class="value" x="224.39" y="571.32" text-anchor="start">+7.88%</text>
<text class="patient" x="82" y="585.11" text-anchor="end">P41</text>
<rect class="win" x="141.07" y="576.56" width="66.16" height="9.10"/>
<text class="value" x="213.22" y="585.11" text-anchor="start">+6.74%</text>
<text class="axis-label" x="460.00" y="636" text-anchor="middle">Full-resolution objective improvement (%)</text>
<rect class="win" x="92" y="24" width="14" height="14"/>
<text class="legend" x="112" y="36">GA lower objective</text>
<rect class="loss" x="262" y="24" width="14" height="14"/>
<text class="legend" x="282" y="36">GA higher objective</text>
<line class="mean" x1="447" y1="31" x2="477" y2="31"/>
<text class="legend" x="485" y="36">Mean 12.14%</text>
<text class="legend" x="828" y="36" text-anchor="end">Positive favors GA</text>
</svg>
