<?xml version="1.0" encoding="UTF-8"?>
<svg xmlns="http://www.w3.org/2000/svg" width="900" height="650" viewBox="0 0 900 650" role="img" aria-labelledby="title description">
<title id="title">Per-patient full-resolution objective improvement</title>
<desc id="description">Horizontal bars show the percentage objective improvement for 17 lung patients. Positive values favor the genetic algorithm. Twelve values are positive and five are negative.</desc>
<style>
text{font-family:Arial,Helvetica,sans-serif;fill:#222}
.tick{font-size:12px}.patient{font-size:13px}.value{font-size:12px;font-weight:600}
.axis-label{font-size:14px}.legend{font-size:12px}.outlier{font-weight:700}
.grid{stroke:#d9d9d9;stroke-width:1}.zero{stroke:#222;stroke-width:1.4}
.mean{stroke:#555;stroke-width:1.4;stroke-dasharray:6 4}
.win{fill:#0072B2}.loss{fill:#D55E00}
</style>
<rect x="92" y="78" width="736" height="510" fill="#fff" stroke="#777" stroke-width="1"/>
<line class="grid" x1="92.00" y1="78" x2="92.00" y2="588"/>
<text class="tick" x="92.00" y="608" text-anchor="middle">-5</text>
<line class="zero" x1="141.07" y1="78" x2="141.07" y2="588"/>
<text class="tick" x="141.07" y="608" text-anchor="middle">0</text>
<line class="grid" x1="239.20" y1="78" x2="239.20" y2="588"/>
<text class="tick" x="239.20" y="608" text-anchor="middle">10</text>
<line class="grid" x1="337.33" y1="78" x2="337.33" y2="588"/>
<text class="tick" x="337.33" y="608" text-anchor="middle">20</text>
<line class="grid" x1="435.47" y1="78" x2="435.47" y2="588"/>
<text class="tick" x="435.47" y="608" text-anchor="middle">30</text>
<line class="grid" x1="533.60" y1="78" x2="533.60" y2="588"/>
<text class="tick" x="533.60" y="608" text-anchor="middle">40</text>
<line class="grid" x1="631.73" y1="78" x2="631.73" y2="588"/>
<text class="tick" x="631.73" y="608" text-anchor="middle">50</text>
<line class="grid" x1="729.87" y1="78" x2="729.87" y2="588"/>
<text class="tick" x="729.87" y="608" text-anchor="middle">60</text>
<line class="grid" x1="828.00" y1="78" x2="828.00" y2="588"/>
<text class="tick" x="828.00" y="608" text-anchor="middle">70</text>
<line class="mean" x1="240.55" y1="78" x2="240.55" y2="588"/>
<text class="patient" x="82" y="97.00" text-anchor="end">P2</text>
<rect class="win" x="141.07" y="83.50" width="26.47" height="19.00"/>
<text class="value" x="173.54" y="97.00" text-anchor="start">+2.70%</text>
<text class="patient" x="82" y="127.00" text-anchor="end">P3</text>
<rect class="win" x="141.07" y="113.50" width="13.29" height="19.00"/>
<text class="value" x="160.36" y="127.00" text-anchor="start">+1.35%</text>
<text class="patient" x="82" y="157.00" text-anchor="end">P4</text>
<rect class="win" x="141.07" y="143.50" width="24.51" height="19.00"/>
<text class="value" x="171.58" y="157.00" text-anchor="start">+2.50%</text>
<text class="patient" x="82" y="187.00" text-anchor="end">P5</text>
<rect class="win" x="141.07" y="173.50" width="63.89" height="19.00"/>
<text class="value" x="210.96" y="187.00" text-anchor="start">+6.51%</text>
<text class="patient" x="82" y="217.00" text-anchor="end">P6</text>
<rect class="loss" x="139.58" y="203.50" width="1.50" height="19.00"/>
<text class="value" x="147.07" y="217.00" text-anchor="start">-0.15%</text>
<text class="patient" x="82" y="247.00" text-anchor="end">P7</text>
<rect class="loss" x="128.08" y="233.50" width="12.98" height="19.00"/>
<text class="value" x="147.07" y="247.00" text-anchor="start">-1.32%</text>
<text class="patient" x="82" y="277.00" text-anchor="end">P8</text>
<rect class="win" x="141.07" y="263.50" width="102.08" height="19.00"/>
<text class="value" x="249.15" y="277.00" text-anchor="start">+10.40%</text>
<text class="patient" x="82" y="307.00" text-anchor="end">P9</text>
<rect class="loss" x="127.62" y="293.50" width="13.45" height="19.00"/>
<text class="value" x="147.07" y="307.00" text-anchor="start">-1.37%</text>
<text class="patient" x="82" y="337.00" text-anchor="end">P10</text>
<rect class="loss" x="126.31" y="323.50" width="14.76" height="19.00"/>
<text class="value" x="147.07" y="337.00" text-anchor="start">-1.50%</text>
<text class="patient" x="82" y="367.00" text-anchor="end">P11</text>
<rect class="win" x="141.07" y="353.50" width="109.72" height="19.00"/>
<text class="value" x="256.79" y="367.00" text-anchor="start">+11.18%</text>
<text class="patient outlier" x="82" y="397.00" text-anchor="end">P14</text>
<rect class="win" x="141.07" y="383.50" width="645.97" height="19.00"/>
<text class="value" x="793.03" y="397.00" text-anchor="start">+65.83%</text>
<text class="patient" x="82" y="427.00" text-anchor="end">P15</text>
<rect class="loss" x="137.43" y="413.50" width="3.63" height="19.00"/>
<text class="value" x="147.07" y="427.00" text-anchor="start">-0.37%</text>
<text class="patient" x="82" y="457.00" text-anchor="end">P16</text>
<rect class="win" x="141.07" y="443.50" width="106.27" height="19.00"/>
<text class="value" x="253.34" y="457.00" text-anchor="start">+10.83%</text>
<text class="patient outlier" x="82" y="487.00" text-anchor="end">P17</text>
<rect class="win" x="141.07" y="473.50" width="326.69" height="19.00"/>
<text class="value" x="473.76" y="487.00" text-anchor="start">+33.29%</text>
<text class="patient" x="82" y="517.00" text-anchor="end">P18</text>
<rect class="win" x="141.07" y="503.50" width="116.25" height="19.00"/>
<text class="value" x="263.32" y="517.00" text-anchor="start">+11.85%</text>
<text class="patient" x="82" y="547.00" text-anchor="end">P19</text>
<rect class="win" x="141.07" y="533.50" width="110.38" height="19.00"/>
<text class="value" x="257.44" y="547.00" text-anchor="start">+11.25%</text>
<text class="patient" x="82" y="577.00" text-anchor="end">P20</text>
<rect class="win" x="141.07" y="563.50" width="92.03" height="19.00"/>
<text class="value" x="239.10" y="577.00" text-anchor="start">+9.38%</text>
<text class="axis-label" x="460.00" y="636" text-anchor="middle">Full-resolution objective improvement (%)</text>
<rect class="win" x="92" y="24" width="14" height="14"/>
<text class="legend" x="112" y="36">GA lower objective</text>
<rect class="loss" x="262" y="24" width="14" height="14"/>
<text class="legend" x="282" y="36">GA higher objective</text>
<line class="mean" x1="447" y1="31" x2="477" y2="31"/>
<text class="legend" x="485" y="36">Mean 10.14%</text>
<text class="legend" x="828" y="36" text-anchor="end">Positive favors GA</text>
</svg>
